<?xml version="1.0" encoding="utf-8"?>
<!-- Generator: Adobe Illustrator 24.1.0, SVG Export Plug-In . SVG Version: 6.00 Build 0)  -->
<svg version="1.1" id="Layer_1" xmlns="http://www.w3.org/2000/svg" xmlns:xlink="http://www.w3.org/1999/xlink" x="0px" y="0px"
	 viewBox="0 0 304.19 78.14" style="enable-background:new 0 0 304.19 78.14;" xml:space="preserve">
<style type="text/css">
	.st0{fill:url(#SVGID_1_);}
	.st1{fill:url(#SVGID_2_);}
	.st2{fill:url(#SVGID_3_);}
	.st3{fill:url(#SVGID_4_);}
	.st4{fill:url(#SVGID_5_);}
	.st5{fill:url(#SVGID_6_);}
</style>
<g>
	<g>
		<linearGradient id="SVGID_1_" gradientUnits="userSpaceOnUse" x1="94.8404" y1="59.7539" x2="172.4974" y2="91.6396">
			<stop  offset="0" style="stop-color:#513B90"/>
			<stop  offset="1" style="stop-color:#ED3B4B"/>
		</linearGradient>
		<path class="st0" d="M63.05,28.88C59.83,17.63,50.83,7.9,39.97,7.9c-15.27,0-23.5,16.02-23.5,31.96
			c0,17.09,9.08,30.54,23.75,30.54c11.2,0,20.53-10.45,22.74-20.45h1.02l-0.25,20.1h-1.02c-1.44-2.04-3.22-4.16-3.73-4.16
			c-0.42,0-7.04,6.11-20.19,6.11c-21.38,0-34.53-13.54-34.53-32.58c0-4.16,0.85-11.07,5.09-17.88c4.84-8.06,14-15.14,29.01-15.14
			c13.66,0,20.28,6.37,20.79,6.37c0.42,0,2.63-2.39,3.99-4.43h0.93v20.45L63.05,28.88z"/>
		<linearGradient id="SVGID_2_" gradientUnits="userSpaceOnUse" x1="97.3564" y1="53.6265" x2="175.0133" y2="85.5121">
			<stop  offset="0" style="stop-color:#513B90"/>
			<stop  offset="1" style="stop-color:#ED3B4B"/>
		</linearGradient>
		<path class="st1" d="M89.01,71.99c-8.99,0-20.53-6.99-20.53-22.04c0-11.15,8.14-21.42,20.7-21.42c9.33,0,20.19,6.99,20.19,21.42
			C109.37,62.08,100.29,71.99,89.01,71.99z M88.67,29.94c-6.7,0-10.52,10.18-10.52,20.27c0,10.54,3.05,20.36,11.03,20.36
			c7.81,0,10.52-12.48,10.52-20.72C99.7,41.54,96.98,29.94,88.67,29.94z"/>
		<linearGradient id="SVGID_3_" gradientUnits="userSpaceOnUse" x1="104.4877" y1="36.2582" x2="182.1447" y2="68.1438">
			<stop  offset="0" style="stop-color:#513B90"/>
			<stop  offset="1" style="stop-color:#ED3B4B"/>
		</linearGradient>
		<path class="st2" d="M142.98,35.61c-2.63,6.55-7.21,18.59-10.6,26.91c-1.87,4.16-2.38,5.58-3.73,8.76
			c-0.17,0.44-0.42,0.71-0.85,0.71c-0.42,0-0.59-0.44-0.76-0.8c-1.87-4.87-8.91-23.28-11.45-29.75c-0.76-1.95-2.46-6.55-3.56-8.68
			c-0.76-0.71-1.7-2.21-5.77-2.39v-0.97h22.31v0.97c-2.12,0.27-6.45,0.71-6.45,3.19c0,1.42,6.45,17.35,10.01,26.29
			c3.39-8.94,9.08-24.17,9.08-26.03c0-3.28-3.99-3.36-6.02-3.54v-0.89h16.46v0.97C149.34,30.38,144.68,31.53,142.98,35.61z"/>
		<linearGradient id="SVGID_4_" gradientUnits="userSpaceOnUse" x1="110.3787" y1="21.9108" x2="188.0357" y2="53.7965">
			<stop  offset="0" style="stop-color:#513B90"/>
			<stop  offset="1" style="stop-color:#ED3B4B"/>
		</linearGradient>
		<path class="st3" d="M150.81,71.46v-0.88c2.63-0.27,5.77-0.97,5.77-3.19v-29.3c0-0.89-0.08-1.68-0.85-2.21
			c-1.02-0.71-2.54-1.5-4.16-2.04V33.3l13.23-4.87h0.51v39.31c0.17,2.3,3.22,2.57,5.43,2.83v0.88H150.81z M160.57,21.09
			c-2.88,0-5.34-2.66-5.34-5.58c0-3.19,2.38-5.49,5.34-5.49s5.34,2.3,5.34,5.49C165.91,18.52,163.45,21.09,160.57,21.09z"/>
	</g>
	<g>
		<linearGradient id="SVGID_5_" gradientUnits="userSpaceOnUse" x1="116.5973" y1="6.7654" x2="194.2543" y2="38.6511">
			<stop  offset="0" style="stop-color:#513B90"/>
			<stop  offset="1" style="stop-color:#ED3B4B"/>
		</linearGradient>
		<path class="st4" d="M177.5,72.19V6.62h24.45c5.19,0,10.14,0.51,14.86,1.53c4.72,1.02,8.89,2.78,12.5,5.28
			c3.61,2.5,6.5,5.82,8.66,9.96c2.16,4.14,3.24,9.35,3.24,15.65c0,5.74-1.03,10.71-3.1,14.91c-2.07,4.2-4.83,7.64-8.29,10.33
			c-3.46,2.69-7.44,4.68-11.95,5.97c-4.51,1.3-9.2,1.95-14.08,1.95H177.5z M197.58,23.77v31.01h4.53c5.77,0,10.2-1.25,13.29-3.75
			c3.09-2.5,4.64-6.59,4.64-12.27c0-4.72-1.55-8.4-4.64-11.04c-3.09-2.63-7.21-3.95-12.36-3.95H197.58z"/>
		<linearGradient id="SVGID_6_" gradientUnits="userSpaceOnUse" x1="126.4002" y1="-17.1095" x2="204.0572" y2="14.7762">
			<stop  offset="0" style="stop-color:#513B90"/>
			<stop  offset="1" style="stop-color:#ED3B4B"/>
		</linearGradient>
		<path class="st5" d="M288.69,38.11c1.54,0.37,3.06,0.97,4.54,1.81c1.48,0.83,2.81,1.88,3.98,3.15c1.17,1.27,2.1,2.73,2.78,4.4
			c0.68,1.67,1.02,3.52,1.02,5.56c0,3.58-0.73,6.59-2.18,9.03c-1.45,2.44-3.37,4.41-5.74,5.93c-2.38,1.51-5.09,2.59-8.15,3.24
			c-3.06,0.65-6.19,0.97-9.4,0.97h-29.73V6.62h26.95c2.65,0,5.48,0.2,8.47,0.6c2.99,0.4,5.76,1.2,8.29,2.41
			c2.53,1.2,4.63,2.96,6.3,5.28c1.67,2.32,2.5,5.36,2.5,9.12c0,3.52-0.88,6.42-2.64,8.71c-1.76,2.28-4.09,3.98-6.99,5.09V38.11z
			 M265.57,22.83v9.09h6.69c1.74,0,3.17-0.4,4.29-1.2c1.11-0.8,1.67-2.04,1.67-3.71c0-1.39-0.59-2.44-1.78-3.14
			c-1.19-0.7-2.75-1.05-4.7-1.05H265.57z M265.57,46.84v10.03h7.42c1.95,0,3.54-0.43,4.76-1.31c1.22-0.87,1.83-2.14,1.83-3.82
			c0-0.98-0.26-1.78-0.78-2.4c-0.52-0.63-1.17-1.13-1.93-1.52c-0.77-0.38-1.59-0.64-2.46-0.78c-0.87-0.14-1.69-0.21-2.46-0.21
			H265.57z"/>
	</g>
</g>
</svg>
